<?xml version="1.0" standalone="no"?>
<!DOCTYPE svg PUBLIC "-//W3C//DTD SVG 20010904//EN"
 "http://www.w3.org/TR/2001/REC-SVG-20010904/DTD/svg10.dtd">
<svg version="1.0" xmlns="http://www.w3.org/2000/svg"
 width="700.000000pt" height="700.000000pt" viewBox="0 0 700.000000 700.000000"
 preserveAspectRatio="xMidYMid meet">
<metadata>
Created by potrace 1.14, written by Peter Selinger 2001-2017
</metadata>
<g transform="translate(0.000000,700.000000) scale(0.100000,-0.100000)"
fill="#000000" stroke="none">
<path d="M750 6943 c0 -75 0 -6926 0 -6935 0 -5 324 -8 720 -8 l720 0 1 1838
c1 1547 3 1827 15 1772 7 -36 15 -87 19 -115 3 -27 8 -57 10 -65 4 -14 8 -37
20 -112 3 -18 10 -55 15 -83 5 -27 11 -63 14 -80 2 -16 27 -167 56 -335 28
-168 53 -314 55 -325 1 -11 12 -78 24 -150 12 -71 24 -146 27 -165 3 -19 7
-37 9 -40 2 -3 7 -33 10 -65 4 -33 9 -62 10 -65 2 -3 6 -24 9 -46 4 -22 8 -49
10 -61 3 -12 8 -43 11 -70 4 -26 11 -64 15 -83 5 -19 11 -53 14 -75 2 -22 7
-51 10 -65 3 -14 8 -41 11 -60 2 -19 7 -51 11 -70 13 -77 78 -460 120 -715 25
-148 47 -281 50 -295 2 -14 7 -41 9 -60 3 -19 8 -46 11 -60 3 -13 7 -40 10
-60 2 -19 8 -57 14 -85 12 -67 20 -112 27 -162 l6 -43 702 0 703 0 11 78 c6
42 13 88 16 102 2 14 6 43 10 65 3 22 7 47 10 55 2 8 6 38 10 65 3 28 8 59 10
70 3 11 7 36 10 55 2 19 7 46 9 60 3 14 7 41 10 60 3 19 8 53 11 75 4 22 17
105 30 185 13 80 26 161 29 180 4 29 24 157 41 260 2 14 13 84 25 155 11 72
25 157 30 190 6 33 12 74 15 90 5 34 43 276 50 315 18 111 47 291 51 320 2 19
7 51 10 70 4 19 8 45 9 57 3 25 15 95 21 128 2 11 7 40 10 65 3 25 7 52 9 60
3 8 9 47 15 85 18 121 20 139 25 160 2 11 15 94 29 185 14 91 27 174 30 185 2
11 9 60 16 108 8 48 16 90 19 91 3 2 6 -801 6 -1785 l0 -1789 728 0 727 0 0
23 c0 30 1 6859 0 6925 l0 52 -1144 0 -1143 0 -13 -102 c-7 -57 -13 -110 -15
-119 -1 -8 -6 -40 -9 -70 -4 -30 -8 -65 -11 -79 -2 -14 -13 -95 -25 -180 -12
-85 -23 -166 -25 -180 -2 -14 -6 -45 -10 -70 -3 -25 -8 -56 -10 -70 -2 -14 -7
-50 -10 -80 -4 -30 -8 -66 -10 -80 -2 -14 -9 -61 -15 -105 -14 -100 -14 -98
-36 -255 -3 -25 -8 -61 -10 -80 -3 -33 -23 -166 -29 -200 -1 -8 -6 -42 -9 -75
-4 -33 -9 -67 -11 -75 -2 -8 -6 -40 -10 -71 -3 -31 -7 -65 -9 -75 -2 -11 -7
-44 -10 -74 -4 -30 -8 -66 -11 -80 -2 -14 -9 -61 -15 -105 -16 -114 -18 -134
-25 -190 -3 -27 -8 -61 -10 -75 -8 -42 -14 -83 -19 -130 -3 -25 -8 -61 -11
-80 -2 -19 -7 -55 -10 -80 -3 -25 -14 -106 -25 -180 -11 -74 -25 -173 -31
-220 -6 -47 -13 -96 -15 -110 -2 -14 -7 -51 -10 -83 -4 -31 -9 -56 -10 -54 -5
5 -21 96 -29 162 -3 28 -8 64 -10 80 -10 68 -16 112 -21 155 -2 25 -6 52 -9
60 -2 8 -7 38 -10 65 -3 28 -7 59 -9 70 -2 11 -7 46 -11 79 -3 32 -8 68 -10
80 -4 22 -42 300 -51 371 -3 22 -7 47 -9 55 -2 8 -6 40 -10 71 -3 31 -7 65 -9
75 -2 11 -7 42 -10 69 -8 64 -16 123 -21 155 -6 43 -16 114 -20 140 -2 14 -7
50 -10 80 -3 30 -8 62 -10 70 -2 8 -7 38 -10 65 -3 28 -7 61 -10 75 -2 14 -7
48 -10 75 -4 28 -8 66 -11 85 -2 19 -6 46 -9 60 -2 14 -7 49 -10 79 -4 30 -8
62 -10 73 -2 10 -11 71 -20 136 -8 64 -18 135 -21 157 -3 22 -8 54 -10 70 -2
17 -6 48 -10 70 -4 22 -8 51 -9 65 -7 68 -16 137 -20 150 -2 8 -7 40 -10 70
-3 30 -8 62 -10 70 -2 8 -6 40 -10 70 -3 30 -7 64 -9 75 -2 11 -7 48 -11 83
l-7 62 -1134 0 -1134 0 0 -57z"/>
</g>
</svg>
