<?xml version="1.0" standalone="no"?>
<!DOCTYPE svg PUBLIC "-//W3C//DTD SVG 20010904//EN"
 "http://www.w3.org/TR/2001/REC-SVG-20010904/DTD/svg10.dtd">
<svg version="1.0" xmlns="http://www.w3.org/2000/svg"
 width="700.000000pt" height="700.000000pt" viewBox="0 0 700.000000 700.000000"
 preserveAspectRatio="xMidYMid meet">
<metadata>
Created by potrace 1.14, written by Peter Selinger 2001-2017
</metadata>
<g transform="translate(0.000000,700.000000) scale(0.100000,-0.100000)"
fill="#000000" stroke="none">
<path d="M2959 5086 c-4 -4 -341 -61 -419 -71 -25 -3 -74 -10 -110 -15 -36 -5
-96 -12 -135 -15 -38 -4 -75 -12 -81 -18 -22 -23 -206 -463 -285 -680 -16 -45
-33 -91 -38 -102 -5 -11 -19 -47 -32 -80 -12 -33 -34 -94 -49 -135 -93 -253
-212 -555 -221 -561 -22 -13 -49 2 -44 25 6 29 23 131 30 186 3 25 8 52 10 60
2 8 7 38 10 65 12 95 15 118 20 144 9 57 14 89 20 141 4 30 13 91 20 135 8 44
16 103 20 130 3 28 7 61 10 75 6 30 12 70 20 130 3 25 10 73 16 108 5 34 12
84 15 110 2 26 7 58 9 72 3 14 7 48 10 75 3 28 8 62 11 76 5 24 2 26 -23 24
-15 -2 -62 -6 -103 -9 -71 -6 -107 -10 -190 -21 -19 -2 -64 -7 -100 -11 -36
-3 -78 -8 -95 -10 -16 -2 -93 -7 -170 -10 -77 -3 -151 -7 -164 -8 -22 -1 -28
-16 -91 -241 -37 -132 -100 -348 -139 -480 -40 -132 -79 -260 -86 -285 -28
-93 -91 -298 -176 -570 -17 -52 -31 -99 -33 -105 -1 -5 -7 -26 -13 -45 -7 -19
-35 -109 -63 -200 -100 -319 -139 -441 -265 -824 -60 -185 -58 -179 -47 -173
4 3 57 8 117 12 61 3 133 8 160 10 28 2 88 6 135 9 169 11 265 18 267 20 2 1
206 711 227 791 9 33 27 101 40 150 13 50 34 126 46 170 12 44 39 148 60 230
l37 150 31 3 c31 3 31 3 27 -40 -8 -92 -15 -176 -20 -243 -3 -38 -8 -91 -11
-117 -4 -46 -9 -107 -19 -228 -2 -30 -9 -104 -14 -165 -10 -107 -19 -209 -26
-290 -4 -51 -16 -190 -20 -235 -2 -19 -7 -76 -10 -127 l-7 -92 64 3 c52 4 269
14 393 20 28 1 31 6 59 86 56 166 190 539 297 829 60 161 133 363 162 447 40
120 56 154 70 154 20 0 20 6 3 -105 -8 -49 -17 -112 -21 -140 -4 -27 -9 -63
-11 -80 -2 -16 -6 -48 -9 -70 -3 -22 -7 -51 -10 -65 -3 -14 -7 -50 -10 -80 -5
-55 -8 -75 -21 -180 -4 -30 -8 -66 -9 -80 -2 -14 -8 -70 -14 -125 -6 -55 -13
-127 -16 -160 -3 -33 -7 -78 -10 -100 -11 -114 -23 -326 -19 -336 2 -3 47 2
101 12 54 10 166 30 248 44 83 14 184 33 225 40 41 8 91 17 110 20 19 3 35 7
36 8 1 1 5 47 9 101 4 55 8 109 10 120 2 12 6 62 10 111 7 112 13 188 20 240
2 22 7 72 10 110 3 39 8 93 10 120 3 28 8 77 10 110 5 55 19 196 30 305 3 25
7 69 10 98 11 119 15 159 20 192 2 19 7 60 10 90 6 64 23 209 30 260 5 40 10
80 20 160 5 49 19 163 30 245 2 17 9 66 15 110 6 44 14 96 16 115 3 19 12 73
19 120 8 47 17 101 19 120 3 20 7 47 11 60 3 14 7 41 9 60 2 19 7 54 11 78 7
37 0 53 -16 38z"/>
<path d="M4397 5044 c-1 -1 -33 -4 -72 -8 -226 -20 -473 -110 -680 -249 -161
-108 -312 -270 -383 -412 -104 -206 -94 -442 27 -610 19 -27 62 -76 95 -107
l59 -57 -28 -11 c-51 -19 -166 -80 -203 -107 -101 -73 -243 -238 -305 -352
-19 -34 -75 -173 -82 -201 -35 -146 -40 -195 -39 -350 1 -212 45 -331 170
-455 117 -116 288 -184 529 -211 545 -60 1095 219 1324 672 78 155 102 264 97
444 -3 100 -9 143 -30 215 -43 142 -124 290 -214 387 l-24 26 48 25 c162 82
327 265 397 439 81 204 71 433 -29 613 -38 69 -147 174 -219 212 -89 47 -201
81 -285 88 -111 9 -150 12 -153 9z m-82 -695 c22 -6 61 -24 87 -41 126 -80
108 -232 -44 -380 -185 -181 -402 -191 -491 -23 -31 59 -30 180 2 258 39 95
155 183 256 195 22 2 41 6 43 7 6 6 107 -6 147 -16z m-192 -1072 c53 -32 102
-78 122 -116 27 -52 43 -148 40 -233 -5 -165 -91 -283 -248 -342 -120 -45
-354 -56 -464 -22 -151 47 -223 188 -172 340 55 163 240 321 449 384 59 18 82
21 158 17 55 -3 83 -10 115 -28z"/>
<path d="M6717 5003 c-3 -2 -261 -13 -417 -18 -323 -10 -528 -17 -575 -20 -27
-2 -117 -7 -200 -10 -82 -4 -153 -10 -157 -13 -4 -4 -10 -50 -13 -102 -3 -52
-8 -117 -10 -145 -1 -27 -6 -90 -9 -140 -4 -49 -9 -122 -12 -161 -3 -39 -7
-91 -9 -116 l-3 -46 222 5 c121 2 269 5 329 6 59 2 106 0 105 -4 -3 -7 -131
-109 -189 -151 -13 -9 -64 -47 -114 -84 -49 -36 -162 -114 -250 -171 -88 -58
-163 -109 -168 -113 -9 -8 -13 -25 -21 -105 -4 -33 -9 -71 -11 -85 -2 -14 -6
-50 -9 -80 -4 -30 -8 -71 -11 -90 -7 -53 -14 -115 -21 -167 -3 -27 -8 -56 -10
-65 -3 -11 0 -18 8 -19 43 -3 140 7 378 38 82 10 274 9 340 -2 215 -38 323
-204 240 -369 -52 -102 -199 -205 -306 -214 -92 -8 -155 36 -168 116 -5 35 -9
40 -29 37 -19 -3 -111 -9 -322 -20 -166 -9 -351 -18 -362 -18 -23 -1 -49 -103
-52 -209 -8 -289 184 -498 507 -553 65 -11 255 -13 327 -3 415 56 835 357
1023 733 25 52 59 137 66 170 24 107 28 141 24 225 -10 188 -84 323 -243 445
-107 81 -305 162 -470 191 -16 3 -33 9 -37 13 -4 4 34 28 85 54 50 26 146 76
212 110 66 35 183 96 260 136 77 41 165 87 195 104 30 17 56 31 57 31 2 1 10
63 18 136 4 30 8 66 10 80 2 14 6 54 10 90 4 36 8 76 10 90 2 14 7 54 10 90 3
36 8 76 10 90 2 14 6 52 10 85 3 33 8 80 11 105 3 25 7 62 10 83 l6 38 -142
-3 c-78 -2 -142 -4 -143 -5z"/>
</g>
</svg>
