<svg width="21" height="24" viewBox="0 0 21 24" fill="none" xmlns="http://www.w3.org/2000/svg">
<g clip-path="url(#clip0_564_8)">
<mask id="mask0_564_8" style="mask-type:luminance" maskUnits="userSpaceOnUse" x="0" y="0" width="21" height="24">
<path d="M0 24H21V0H0V24Z" fill="white"/>
</mask>
<g mask="url(#mask0_564_8)">
<mask id="mask1_564_8" style="mask-type:luminance" maskUnits="userSpaceOnUse" x="0" y="0" width="21" height="24">
<path d="M0 24H21V0H0V24Z" fill="white"/>
</mask>
<g mask="url(#mask1_564_8)">
<path d="M20.5594 13.0594C21.1453 12.4734 21.1453 11.5219 20.5594 10.9359L13.0594 3.4359C12.4734 2.85 11.5219 2.85 10.9359 3.4359C10.35 4.0219 10.35 4.9734 10.9359 5.5594L15.8813 10.5H1.5C0.6703 10.5 0 11.1703 0 12C0 12.8297 0.6703 13.5 1.5 13.5H15.8766L10.9406 18.4406C10.3547 19.0266 10.3547 19.9781 10.9406 20.5641C11.5266 21.15 12.4781 21.15 13.0641 20.5641L20.5641 13.0641L20.5594 13.0594Z" fill="#CCFF00"/>
</g>
</g>
</g>
<defs>
<clipPath id="clip0_564_8">
<rect width="21" height="24" fill="white"/>
</clipPath>
</defs>
</svg>
