<svg width="2157" height="999" viewBox="0 0 2157 999" fill="none" xmlns="http://www.w3.org/2000/svg">
<path d="M773.082 961.646C748.099 962.926 714.516 955.517 679.338 920.735C656.035 896.21 635.738 868.991 618.879 839.657C582.341 779.563 543.461 700.227 502.273 616.284C484.787 580.66 463.104 536.381 440.764 493.171C452.017 537.273 464.144 580.747 473.419 614.007C524.099 796.209 540.07 861.695 509.084 911.393C502.549 922.051 493.843 931.211 483.531 938.277C473.22 945.343 461.536 950.157 449.24 952.403C407.756 960.097 351.172 950.952 219.21 832.291C150.505 769.95 86.2159 702.906 26.8079 631.644L151.864 529.276C207.919 596.858 268.989 660.114 334.556 718.506C328.885 697.494 323.021 676.491 317.705 657.339C294.786 574.984 268.778 481.586 255.971 405.836C247.324 354.479 224.327 218.709 323.479 180.606C421.438 143.212 491.23 256.188 521.082 304.517C561.664 370.296 605.175 459.171 647.369 545.071C663.774 578.548 684.302 620.491 705.083 661.061C703.869 652.511 702.675 644.349 701.578 636.829C692.984 577.634 684.093 516.447 682.592 466.86C681.614 433.822 678.543 333.292 760.097 304.185C817.876 283.547 873.343 311.333 924.877 387.494C952.887 428.924 980.637 482.994 1007.33 535.305L1017.39 554.926C1026.22 460.585 1038.98 374.719 1112.3 345.257C1144.01 332.624 1204.66 325.05 1259.44 416.52C1278.76 448.812 1297.36 491.048 1317.32 535.804C1327.58 559.107 1343.25 594.823 1359.47 627.144C1355.24 569.733 1344.92 498.388 1337.31 446.978C1326.22 370.557 1314.73 291.503 1313.19 228.515C1312.24 189.713 1309.28 71.1759 1402.98 41.5758C1443.68 28.7417 1522.05 24.5973 1589.96 141.295C1620.27 193.486 1645.33 262.067 1667.45 322.512C1671.59 333.89 1676.33 346.857 1681.28 360.007C1683.84 342.976 1685.63 326.177 1686.88 313.94C1694.41 243.365 1703.76 155.537 1781.74 127.39C1880.44 91.8354 1944.39 217.025 1978.77 284.352C2018.19 361.523 2060 461.492 2093.66 542.39C2113.87 590.888 2131.35 632.729 2144.28 660.298L1998.02 728.981C1983.5 698.255 1965.49 654.889 1944.54 604.68C1921.68 549.906 1880 450.124 1842.62 373.561C1831.96 452.456 1807.36 547.216 1712.41 582.708C1700.15 587.28 1687.11 589.367 1674.04 588.847C1660.97 588.327 1648.13 585.211 1636.27 579.681C1579.79 553.695 1554.28 483.777 1515.92 377.997C1506.89 353.401 1493.36 316.668 1479.05 282.242C1483.89 330.039 1491.67 383.578 1497.48 423.749C1509.26 504.732 1521.45 588.543 1522.33 656.485C1523.08 697.564 1525.14 822.686 1425.17 852.414C1380.54 865.643 1313.94 860.702 1249.79 761.877C1221.7 718.897 1197.74 665.475 1174.53 612.857C1172.21 643.275 1167.94 673.513 1161.75 703.385C1143 784.637 1098.86 808.849 1065.18 814.783C976.729 830.452 929.259 737.571 863.582 608.909C862.43 606.637 861.275 604.301 859.984 601.841C860.583 605.955 861.172 609.874 861.687 613.603C870.48 674.148 879.572 736.749 881.105 788.213C882.544 815.396 880.302 842.651 874.44 869.234C861.283 922.032 830.089 944.869 806.255 954.702C795.664 958.859 784.45 961.206 773.082 961.646Z" fill="#A055FF"/>
<rect x="932.881" y="642.373" width="151.002" height="86.5204" fill="#FFCF01"/>
<rect width="70.3147" height="115.864" transform="matrix(-1 0 0 1 1133.11 642.373)" fill="#FFCF01"/>
<rect width="95.9267" height="336.475" transform="matrix(-1 0 0 1 1133.11 408.307)" fill="#FFCF01"/>
<rect x="1133.11" y="408.307" width="104.164" height="4.44222" transform="rotate(180 1133.11 408.307)" fill="#FFCF01"/>
<rect x="1125.08" y="408.307" width="96.1295" height="7.74367" transform="rotate(180 1125.08 408.307)" fill="#FFCF01"/>
<rect x="1107.71" y="408.307" width="295.267" height="11.7955" transform="rotate(180 1107.71 408.307)" fill="#FFCF01"/>
<rect width="11.4293" height="10.2544" transform="matrix(1 0 0 -1 801.008 408.307)" fill="#FFCF01"/>
<rect x="801.008" y="408.307" width="8.79175" height="9.06921" transform="rotate(180 801.008 408.307)" fill="#FFCF01"/>
<rect width="5.99642" height="9.06921" transform="matrix(1 0 0 -1 786.221 408.307)" fill="#FFCF01"/>
<rect x="801.008" y="408.307" width="92.5323" height="3.98732" transform="rotate(180 801.008 408.307)" fill="#FFCF01"/>
<rect x="804.484" y="408.307" width="33.2218" height="6.43104" transform="rotate(180 804.484 408.307)" fill="#FFCF01"/>
<rect x="1133.11" y="449.374" width="424.635" height="45.0538" transform="rotate(180 1133.11 449.374)" fill="#FFCF01"/>
<rect x="1133.11" y="688.331" width="424.635" height="284.01" transform="rotate(180 1133.11 688.331)" fill="#FFCF01"/>
<rect width="341.468" height="112.847" transform="matrix(1 0 0 -1 1133.11 688.331)" fill="#FFCF01"/>
<rect width="344.389" height="24.0111" transform="matrix(1 0 0 -1 1133.11 604.011)" fill="#FFCF01"/>
<rect width="347.583" height="16.0171" transform="matrix(1 0 0 -1 1133.11 604.011)" fill="#FFCF01"/>
<rect x="1133.11" y="604.011" width="355.895" height="16.2735" fill="#FFCF01"/>
<rect x="1133.11" y="607.087" width="361.776" height="13.1981" fill="#FFCF01"/>
<rect x="1133.11" y="609.777" width="366.889" height="10.5073" fill="#FFCF01"/>
<rect x="1133.11" y="613.622" width="373.282" height="26.6525" fill="#FFCF01"/>
<rect x="1133.11" y="613.622" width="370.596" height="29.5997" fill="#FFCF01"/>
<rect x="1133.11" y="613.622" width="363.692" height="40.6194" fill="#FFCF01"/>
<rect x="1133.11" y="613.622" width="361.776" height="46.8982" fill="#FFCF01"/>
<rect x="1133.11" y="613.622" width="358.961" height="53.1769" fill="#FFCF01"/>
<rect x="1133.11" y="613.622" width="356.79" height="81.8797" fill="#FFCF01"/>
<rect x="1133.11" y="695.501" width="341.468" height="5.76978" fill="#FFCF01"/>
<rect x="1133.11" y="695.501" width="317.195" height="10.1878" fill="#FFCF01"/>
<rect x="1133.11" y="695.501" width="305.061" height="36.0356" fill="#FFCF01"/>
<rect x="1133.11" y="568.55" width="339.255" height="6.93374" fill="#FFCF01"/>
<rect x="1128.25" y="563.878" width="339.255" height="6.93374" fill="#FFCF01"/>
<rect x="1123.71" y="558.02" width="339.255" height="6.93374" fill="#FFCF01"/>
<rect x="1120.5" y="553.625" width="339.255" height="6.93374" fill="#FFCF01"/>
<rect x="1114.53" y="550.159" width="339.255" height="6.93374" fill="#FFCF01"/>
<rect x="1106.8" y="546.692" width="339.255" height="6.93374" fill="#FFCF01"/>
<rect x="1100.42" y="543.225" width="339.255" height="6.93374" fill="#FFCF01"/>
<rect x="1091.06" y="539.758" width="339.255" height="6.93374" fill="#FFCF01"/>
<rect x="1077.9" y="536.439" width="339.255" height="6.93374" fill="#FFCF01"/>
<rect x="1066.92" y="532.973" width="339.255" height="6.93374" fill="#FFCF01"/>
<rect x="1054.16" y="530.254" width="339.255" height="6.93374" fill="#FFCF01"/>
<rect x="1044.67" y="526.787" width="339.255" height="6.93374" fill="#FFCF01"/>
<rect x="1034.22" y="524.204" width="339.255" height="6.93374" fill="#FFCF01"/>
<rect x="1022.82" y="521.62" width="339.255" height="6.93374" fill="#FFCF01"/>
<rect x="1010.07" y="518.926" width="339.255" height="6.93374" fill="#FFCF01"/>
<rect x="1001.12" y="516.343" width="339.255" height="6.93374" fill="#FFCF01"/>
<rect x="989.996" y="512.876" width="339.255" height="6.93374" fill="#FFCF01"/>
<rect x="980.148" y="511.065" width="339.255" height="6.93374" fill="#FFCF01"/>
<rect x="966.732" y="507.708" width="339.255" height="6.93374" fill="#FFCF01"/>
<rect x="956.883" y="505.015" width="339.255" height="6.93374" fill="#FFCF01"/>
<rect x="941.754" y="501.56" width="339.255" height="6.93374" fill="#FFCF01"/>
<rect x="941.754" y="439.029" width="244.823" height="69.4647" fill="#FFCF01"/>
<rect x="941.754" y="474.935" width="292.263" height="33.5586" fill="#FFCF01"/>
<rect x="941.754" y="469.885" width="286.141" height="38.6084" fill="#FFCF01"/>
<rect x="941.754" y="464.141" width="279.123" height="44.3532" fill="#FFCF01"/>
<rect x="941.754" y="458.278" width="271.636" height="50.2151" fill="#FFCF01"/>
<rect x="941.754" y="452.299" width="263.917" height="56.1945" fill="#FFCF01"/>
<rect x="941.754" y="446.437" width="255.727" height="62.0565" fill="#FFCF01"/>
<rect x="941.754" y="442.099" width="249.76" height="66.3944" fill="#FFCF01"/>
<rect x="941.754" y="479.425" width="297.995" height="29.069" fill="#FFCF01"/>
<rect x="941.754" y="483.845" width="303.389" height="24.6483" fill="#FFCF01"/>
<rect x="941.754" y="488.382" width="307.131" height="20.1113" fill="#FFCF01"/>
<rect x="941.754" y="434.467" width="239.58" height="74.0267" fill="#FFCF01"/>
<rect x="941.754" y="430.468" width="234.331" height="78.0262" fill="#FFCF01"/>
<rect x="941.754" y="425.416" width="227.188" height="83.0782" fill="#FFCF01"/>
<rect x="941.754" y="421.206" width="220.467" height="87.2882" fill="#FFCF01"/>
<rect x="941.754" y="417.417" width="214.377" height="91.077" fill="#FFCF01"/>
<rect x="941.754" y="412.996" width="208.706" height="95.4977" fill="#FFCF01"/>
<rect x="941.754" y="408.307" width="201.354" height="100.186" fill="#FFCF01"/>
<rect x="941.754" y="501.56" width="339.255" height="6.93374" fill="#FFCF01"/>
<rect width="16.4274" height="189.935" transform="matrix(1 0 0 -1 692.049 686.504)" fill="#FFCF01"/>
<rect x="692.049" y="680.877" width="8.26682" height="214.721" transform="rotate(180 692.049 680.877)" fill="#FFCF01"/>
<rect x="719.967" y="640.063" width="36.1846" height="173.906" transform="rotate(180 719.967 640.063)" fill="#FFCF01"/>
<rect x="719.967" y="640.063" width="45.9618" height="163.866" transform="rotate(180 719.967 640.063)" fill="#FFCF01"/>
<rect width="2.66007" height="110.429" transform="matrix(1 0 0 -1 671.346 586.626)" fill="#FFCF01"/>
<rect x="671.346" y="625.76" width="4.88538" height="141.052" transform="rotate(180 671.346 625.76)" fill="#FFCF01"/>
<rect x="669.539" y="524.483" width="5.90947" height="26.9916" transform="rotate(180 669.539 524.483)" fill="#FFCF01"/>
<rect x="658.049" y="594.19" width="7.33934" height="25.4048" transform="rotate(180 658.049 594.19)" fill="#FFCF01"/>
<rect width="4.29604" height="4.91627" transform="matrix(-1 0 0 1 658.049 594.19)" fill="#FFCF01"/>
<rect width="2.00632" height="12.3584" transform="matrix(1 0 0 -1 661.623 524.483)" fill="#FFCF01"/>
<rect width="4.43452" height="75.5508" transform="matrix(1 0 0 -1 657.188 603.574)" fill="#FFCF01"/>
<rect width="5.75167" height="103.003" transform="matrix(1 0 0 -1 660.707 622.197)" fill="#FFCF01"/>
<rect width="11.4099" height="10.7222" transform="matrix(-1 0 0 1 688.24 640.063)" fill="#FFCF01"/>
<rect x="688.24" y="658.844" width="8.91734" height="8.05816" transform="rotate(180 688.24 658.844)" fill="#FFCF01"/>
<rect width="32.3942" height="3.42935" transform="matrix(-1 0 0 1 719.967 462.728)" fill="#FFCF01"/>
<rect width="28.8582" height="6.73665" transform="matrix(-1 0 0 1 719.967 459.42)" fill="#FFCF01"/>
<rect width="24.6942" height="9.96528" transform="matrix(-1 0 0 1 719.967 456.191)" fill="#FFCF01"/>
<rect width="24.6942" height="10.4159" transform="matrix(-1 0 0 1 702.564 470.764)" fill="#FFCF01"/>
<rect width="21.9085" height="14.2963" transform="matrix(-1 0 0 1 719.967 451.86)" fill="#FFCF01"/>
<rect x="719.967" y="451.86" width="21.9085" height="1.91902" transform="rotate(180 719.967 451.86)" fill="#FFCF01"/>
<rect x="717.312" y="449.374" width="12.0476" height="41.9815" transform="rotate(180 717.312 449.374)" fill="#FFCF01"/>
<rect x="717.312" y="449.374" width="14.7495" height="37.5802" transform="rotate(180 717.312 449.374)" fill="#FFCF01"/>
<rect x="717.312" y="449.374" width="17.4515" height="31.9375" transform="rotate(180 717.312 449.374)" fill="#FFCF01"/>
<rect x="717.312" y="449.374" width="19.2549" height="25.0536" transform="rotate(180 717.312 449.374)" fill="#FFCF01"/>
<rect x="717.312" y="449.374" width="22.5204" height="19.6365" transform="rotate(180 717.312 449.374)" fill="#FFCF01"/>
<rect x="717.312" y="449.941" width="25.2223" height="14.3359" transform="rotate(180 717.312 449.941)" fill="#FFCF01"/>
<rect x="1083.4" y="408.307" width="253.244" height="14.4714" transform="rotate(180 1083.4 408.307)" fill="#FFCF01"/>
<rect x="1066.73" y="408.307" width="215.166" height="16.2218" transform="rotate(180 1066.73 408.307)" fill="#FFCF01"/>
<rect x="1038.97" y="408.307" width="173.748" height="17.9321" transform="rotate(180 1038.97 408.307)" fill="#FFCF01"/>
<rect x="1022.83" y="408.307" width="147.994" height="19.1759" transform="rotate(180 1022.83 408.307)" fill="#FFCF01"/>
<path fill-rule="evenodd" clip-rule="evenodd" d="M1510.06 618.179C1508.54 610.145 1494.8 608.201 1489.47 602.762C1485.64 598.856 1483.85 593.014 1481.55 587.571C1476.39 575.397 1470.29 560.139 1460.05 552.881C1443.24 540.971 1419.59 536.08 1397.58 529.527C1358.55 517.908 1315.29 510.151 1276.49 498.465C1271.51 498.01 1266.53 497.558 1261.55 497.104C1250.31 487.658 1239.07 478.209 1227.83 468.761C1208.21 453.677 1188.73 438.726 1168.3 424.321C1157.33 416.58 1145.9 407.917 1133 402.328C1118.85 396.2 1102.27 395.039 1084.56 392.124C1075.96 391.519 1067.36 390.915 1058.76 390.309C1046.54 389.478 1034.31 388.646 1022.09 387.815C1018.77 387.74 1015.45 387.663 1012.13 387.588C1003.01 387.286 993.876 386.983 984.748 386.681C977.281 386.529 969.81 386.379 962.342 386.227C947.632 386.152 932.919 386.075 918.209 386C901.764 386.756 885.314 387.511 868.869 388.267C853.481 389.855 838.087 391.441 822.697 393.028C805.244 396.155 788.062 398.253 771.094 400.963C755.781 401.418 740.462 401.87 725.149 402.324C719.357 403.229 711.795 401.217 707.496 403.685C702.933 406.303 693.495 429.783 690.748 436.108C689.6 438.747 686.926 443.089 687.805 446.991C688.769 451.27 693.148 451.331 695.274 454.247C695.349 454.399 695.425 454.549 695.5 454.701C686.901 462.258 678.299 469.818 669.698 477.374C665.646 482.774 664.773 492.047 662.682 499.141C660.445 506.728 659.976 515.472 657.929 523.856C656.571 526.577 655.213 529.298 653.855 532.018C652.657 537.533 653.668 560.282 654.986 564.441C653.023 567.347 648.197 567.356 646.839 571.017C645.835 573.722 646.546 577.79 647.065 580.312C648.178 585.713 648.748 590.542 650.687 595.05C652.648 598.603 654.61 602.156 656.571 605.707C658.186 611.389 657.073 619.437 660.192 623.618C663.435 626.565 666.68 629.513 669.925 632.462C670.68 635.938 671.433 639.415 672.188 642.891C674.32 650.456 677.152 659.173 681.467 664.885V665.791C677.539 668.827 661.169 671.618 664.265 680.075C665.053 682.229 671.089 682.435 673.544 683.024C682.295 685.139 691.047 687.256 699.798 689.373C712.32 692.749 727.384 692.295 741.442 695.04C772.22 700.935 803.007 706.832 833.784 712.725C893.454 724.211 953.142 735.702 1012.81 747.188C1031.27 751.693 1047.49 757.829 1066 761.472C1080.73 764.372 1100.74 763.514 1117.15 763.512C1123.79 763.587 1130.43 763.664 1137.07 763.739C1146.04 765.463 1156.71 767.149 1166.49 768.955C1176.37 770.164 1186.26 771.374 1196.14 772.583C1202.52 773.746 1216.94 776.893 1223.75 775.756C1251.06 771.222 1278.38 766.686 1305.68 762.152C1352.15 754.369 1398.64 746.582 1445.1 738.797C1455.06 737.21 1465.02 735.624 1474.98 734.036C1477.78 733.463 1481.11 733.832 1483.13 732.448C1485.35 730.927 1487.27 726.201 1487.43 722.699C1484.36 719.595 1478.07 719.392 1473.17 718.164C1463.49 715.742 1452.47 713.96 1443.07 711.363C1442.99 710.986 1442.91 710.607 1442.84 710.229C1453.83 704.897 1485.9 702.911 1491.95 695.039C1498.19 686.92 1488.72 678.418 1490.59 672.818C1492.18 669.492 1493.76 666.167 1495.35 662.841C1497.23 657.703 1499.12 652.562 1501 647.424C1503.12 645.308 1505.23 643.191 1507.34 641.074C1509.14 638.13 1511.05 623.358 1510.06 618.179ZM1482.45 604.802H1484.94C1487.56 607.399 1491.18 611.75 1495.35 612.512C1495.43 612.664 1495.5 612.814 1495.58 612.966C1458.24 616.291 1420.89 619.617 1383.55 622.943C1364.08 624.151 1344.61 625.362 1325.15 626.57C1318.36 626.797 1311.57 627.024 1304.78 627.25C1293.77 627.704 1282.75 628.156 1271.74 628.61C1266.08 628.837 1260.42 629.065 1254.76 629.29C1245.03 630.778 1232.17 630.254 1222.85 628.836C1218.93 628.684 1215 628.534 1211.08 628.382C1195.09 627.248 1179.09 626.114 1163.1 624.981C1155.71 624.301 1148.31 623.62 1140.92 622.941C1139.68 621.217 1144.44 615.07 1146.35 614.552C1149.37 614.702 1152.38 614.854 1155.4 615.006C1163.32 615.61 1171.25 616.214 1179.17 616.821C1186.48 617.425 1193.8 618.029 1201.12 618.635C1216.55 621.175 1233.15 621.13 1250.23 621.13C1262.91 620.902 1275.58 620.675 1288.26 620.45C1298.06 620.148 1307.87 619.846 1317.68 619.544C1319.72 619.393 1321.75 619.241 1323.79 619.089C1324.77 618.333 1325.75 617.579 1326.73 616.822C1328 616.562 1329.36 617.675 1330.81 617.956C1338.35 617.729 1345.9 617.502 1353.44 617.276C1361.89 616.747 1370.34 616.218 1378.79 615.689C1384.98 615.235 1391.16 614.782 1397.35 614.328C1415.08 612.515 1432.81 610.7 1450.54 608.887C1461.18 607.523 1471.82 606.163 1482.45 604.802ZM984.979 622.941C984.313 621.594 984.297 618.166 984.979 616.819C988.826 617.273 992.674 617.725 996.521 618.179C996.671 618.331 996.822 618.482 996.974 618.634C996.597 620.069 996.219 621.505 995.842 622.941C994.704 624.462 987.113 623.402 984.979 622.941ZM994.711 627.023C994.352 630.872 992.178 632.804 990.636 635.412C988.75 640.4 986.863 645.389 984.979 650.377C984.904 650.452 984.827 650.529 984.752 650.604C984.056 649.567 983.823 628.324 984.752 626.343C987.92 626.57 991.089 626.797 994.257 627.023H994.711ZM984.979 613.872C983.608 611.53 983.843 585.021 984.525 580.768C984.827 570.868 985.128 560.965 985.43 551.066C988.082 535.237 988.178 519.552 994.709 507.76C997.063 503.511 1000.37 500.024 1003.08 496.197C1007.49 496.425 1011.62 500.33 1015.53 501.865C1025.34 505.72 1036.66 508.008 1047.22 510.709C1075.51 517.943 1103.83 524.233 1131.19 532.475C1144.97 536.629 1158.45 539.521 1171.47 544.492C1182.62 548.747 1194.45 552.525 1204.29 558.324C1208.29 560.968 1212.29 563.614 1216.29 566.259V566.486C1211.29 569.109 1206.02 566.021 1202.48 570.793C1197.32 577.745 1202.56 603.2 1202.71 613.647C1200.02 614.824 1193.68 613.698 1190.49 613.193C1180.23 612.513 1169.96 611.832 1159.71 611.153C1156.01 610.559 1150.48 609.539 1146.58 610.473C1143.84 611.128 1141.49 613.03 1140.01 615.008H1139.34C1128.53 596.853 1118.09 581.086 1099.95 570.341C1094.57 567.151 1087.81 565.047 1081.4 563.085C1049.04 553.185 1020.89 572.985 1008.29 592.787C1003.97 599.578 1001.51 607.015 998.105 615.008C993.729 614.627 989.353 614.25 984.979 613.872ZM812.288 630.878C810.363 626.34 800.762 614.094 804.141 606.844C863.056 613.116 921.989 619.39 980.904 625.662C981.849 627.702 982.109 652.878 981.357 655.818C980.587 658.833 978.137 662.977 975.699 664.434C973.147 665.961 967.325 665.507 963.931 664.888C954.048 663.528 944.163 662.167 934.282 660.806C893.17 655.366 852.044 649.923 810.932 644.482C811.811 640.426 814.407 635.871 812.288 630.878ZM793.502 602.308C787.996 601.628 782.486 600.947 776.98 600.268C764.971 598.109 752.519 597.738 741.446 595.279C740.654 594.153 740.096 593.437 740.087 591.424C758.72 593.237 777.359 595.052 795.992 596.867C796.067 597.094 796.143 597.321 796.218 597.546C795.057 599.021 793.765 599.871 793.502 602.308ZM796.672 600.947H797.35L797.803 601.174C797.2 601.401 796.597 601.628 795.992 601.854V601.627L796.672 600.947ZM800.066 606.163C800.744 610.017 801.424 613.872 802.103 617.725C803.989 621.655 805.876 625.585 807.76 629.515C793.88 627.702 779.997 625.887 766.116 624.073L765.89 624.752V624.979C768.336 626.252 772.043 625.98 775.169 626.567C786.257 628.155 797.35 629.74 808.439 631.328C812.51 633.768 808.799 641.104 807.76 643.799C804.988 645.366 791.397 642.715 787.391 641.984C780.905 640.804 773.758 640.963 768.606 638.357C761.981 635.005 755.247 619.317 751.178 612.508C749.082 608.999 743.208 602.762 742.577 598.904C761.738 601.326 780.905 603.743 800.066 606.163ZM802.329 598.907C802.556 598.53 802.783 598.151 803.008 597.773C843.441 601.93 883.888 606.087 924.32 610.244C936.012 611.453 947.709 612.664 959.401 613.872C964.368 614.709 970.985 613.581 975.018 615.687L975.696 616.141V621.357C972.823 622.499 965.453 620.813 961.889 620.223C951.78 619.24 941.67 618.258 931.561 617.275C902.215 614.176 872.863 611.078 843.518 607.979C832.731 606.77 821.94 605.56 811.153 604.351C808.215 603.822 805.138 604.14 802.779 603.218C802.631 601.778 802.481 600.343 802.329 598.907ZM979.319 616.366H980.677C981.253 617.573 981.193 619.926 981.131 621.809C980.754 621.884 980.376 621.961 979.999 622.036L979.546 621.809C979.471 619.994 979.396 618.179 979.319 616.366ZM981.582 557.868C981.281 576.232 980.979 594.602 980.677 612.964C921.309 606.994 861.923 601.022 802.556 595.052C800.804 592.039 801.829 586.668 801.198 582.581C799.697 572.854 799.84 562.205 799.84 551.519C799.84 547.152 798.792 539.694 800.518 536.554C805.949 537.233 811.382 537.914 816.813 538.594C832.201 540.332 847.594 542.071 862.984 543.809C900.174 547.966 937.375 552.123 974.564 556.28C974.639 556.205 974.716 556.128 974.791 556.053V555.374C927.87 549.933 880.934 544.49 834.014 539.05C833.788 538.974 833.561 538.898 833.336 538.822C833.904 533.946 835.765 526.746 834.241 521.59C831.91 520.102 814.844 515.507 811.155 517.056C809.263 518.148 806.791 529.995 807.76 533.38C809.687 537.291 818.42 535.582 821.792 538.141C814.851 537.31 807.91 536.479 800.969 535.647C800.818 535.42 800.668 535.193 800.516 534.968C798.957 528.914 807.286 504.181 810.248 501.638C821.865 503.074 833.486 504.51 845.103 505.945C867.492 509.795 891.43 509.498 914.361 513.201C922.357 513.88 930.356 514.562 938.352 515.241C948.535 515.997 958.723 516.752 968.907 517.508C972.959 517.877 979.146 518.755 981.807 516.829C989.074 511.566 982.496 501.429 981.58 493.929C984.673 498.69 987.766 503.451 990.859 508.213C990.587 514.42 987.154 520.705 985.653 526.806C983.256 536.568 983.252 547.082 981.582 557.868ZM831.753 524.311C825.567 523.405 819.379 522.497 813.193 521.59C811.326 523.932 810.233 528.419 809.798 532.019L809.12 532.473L808.894 532.246C809.343 528.088 810.409 521.969 812.515 519.096C816.419 519.961 830.956 521.117 832.206 523.63C832.054 523.857 831.903 524.084 831.753 524.311ZM726.282 478.963C740.534 479.021 753.854 481.402 766.116 483.952C778.713 485.69 791.315 487.429 803.914 489.167C804.388 490.089 804.467 491.314 803.914 492.341C802.939 493.583 787.855 490.879 785.129 490.301C771.324 487.882 757.516 485.464 743.71 483.045C738.053 481.987 732.393 480.928 726.736 479.872C725.942 479.272 726.392 479.776 726.282 478.963ZM830.846 496.423V496.65C828.968 497.144 824.064 496.77 822.246 495.97H821.792C824.055 484.937 826.318 473.9 828.581 462.866C836.917 470.3 827.699 484.181 830.846 496.423ZM825.869 430.216C822.851 439.964 819.832 449.716 816.814 459.466L816.361 459.693C816.211 459.617 816.059 459.541 815.908 459.466C821.532 445.222 823.862 425.469 831.524 413.438H831.978C829.941 419.029 827.905 424.624 825.869 430.216ZM819.758 435.884C816.211 448.126 812.665 460.372 809.12 472.616C804.584 474.665 790.547 473.523 784.449 473.523C767.935 473.523 751.701 475.156 736.241 475.11C733.609 469.21 743.179 461.539 745.974 458.786C754.196 451.228 762.422 443.669 770.644 436.113C777.235 430.791 782.183 424.889 790.109 420.695C801.424 420.922 812.743 421.149 824.059 421.375C824.976 425.336 820.922 432.171 819.758 435.884ZM743.935 457.197C738.44 462.519 733.073 466.838 733.525 477.603L733.298 477.83C731.412 477.755 729.525 477.678 727.64 477.603L727.187 476.923C725.698 473.212 728.345 468.845 729.904 467.173C735.676 460.987 744.124 457.551 750.046 451.529C750.449 451.604 744.852 456.309 743.935 457.197ZM792.597 485.992C783.234 484.14 769.488 484.35 761.364 480.776L760.91 480.549C763.173 480.397 765.436 480.247 767.699 480.095C775.306 480.062 797.93 478.492 803.008 480.775C803.684 482.533 804.378 484.102 804.366 486.669C801.679 487.887 795.807 486.628 792.597 485.992ZM803.234 478.284C799.161 478.209 795.087 478.132 791.012 478.057C781.205 478.207 771.396 478.359 761.588 478.511C753.139 478.057 744.689 477.604 736.239 477.15C736.164 476.998 736.088 476.848 736.013 476.696C739.43 474.258 748.5 476.508 753.214 475.79C759.475 475.638 765.738 475.487 771.999 475.336C783.918 475.185 795.84 475.033 807.759 474.881C807.638 477.077 807.047 478.63 806.4 480.322C805.347 479.645 804.291 478.963 803.234 478.284ZM965.287 495.516C960.097 496.587 959.405 499.818 959.63 506.173L959.403 506.4H958.725C957.549 503.764 959.492 499.565 958.498 496.877C958.423 496.65 958.346 496.423 958.271 496.197H957.14C956.763 498.767 956.385 501.338 956.008 503.907C954.802 505.287 939.277 504.587 935.865 504.587C929.114 504.587 905.662 505.888 901.916 503.68C895.627 499.972 898.551 483.601 903.274 480.1C904.989 478.829 907.266 479.379 909.611 478.513C917.851 478.56 935.871 478.315 941.976 480.78C946.647 482.666 948.176 487.993 951.935 490.757C954.795 492.858 961.553 493.359 965.062 494.384C965.336 495.055 965.28 494.844 965.287 495.516ZM967.324 497.329C968.53 497.481 969.738 497.631 970.945 497.783C972.542 500.428 970.697 504.96 969.36 506.854C967.25 507.404 964.846 507.175 962.796 506.627C961.764 504.98 960.751 499.809 962.796 498.238C964.306 497.934 965.815 497.631 967.324 497.329ZM893.54 475.563C888.351 477.919 879.982 475.508 873.622 476.469C861.1 476.771 848.573 477.073 836.051 477.376L835.824 477.149C836.359 472.908 841.332 474.2 845.783 474.2C851.748 474.2 866.942 474.597 871.359 472.84C875.578 471.161 878.35 465.505 880.864 461.956C888.339 451.405 896.209 440.93 903.045 429.76H903.724C905.007 431.348 906.288 432.936 907.571 434.522C910.508 438.181 914.849 440.293 917.077 444.726C917.063 446.374 916.732 447.265 915.719 447.899C914.028 449.463 903.73 450.297 901.007 451.073C899.185 453.778 899.143 460.049 899.196 464.45C894.629 466.726 893.376 468.602 893.54 475.563ZM903.725 453.116C903.574 457.197 903.424 461.279 903.272 465.36C902.632 465.654 902.629 465.783 901.914 465.588C900.174 464.265 901.678 454.365 902.819 453.116H903.725ZM946.049 431.802C940.095 422.802 934.763 410.912 925.453 405.274C919.363 401.585 910.729 400.82 902.367 399.379C899.211 398.836 892.485 399.877 890.372 398.019C905.26 397.933 921.828 398.747 931.337 404.595C937.86 408.605 942.275 422.517 946.049 429.762C947.709 432.936 949.369 436.111 951.029 439.285C949.369 436.791 947.709 434.296 946.049 431.802ZM902.367 426.134C897.698 437.047 887.071 448.884 880.413 458.784C877.927 462.482 874.506 469.587 870.227 471.255C859.063 471.71 847.894 472.162 836.731 472.616C836.656 472.541 836.579 472.464 836.504 472.389C840.955 456.065 845.406 439.737 849.858 423.415C851.627 421.148 860.055 423.577 862.984 422.508C874.483 422.466 896.568 420.65 902.367 426.134ZM834.243 468.988C833.134 465.946 835.808 460.627 836.506 457.878C839.574 445.788 840.936 432.604 847.143 423.64C842.843 438.754 838.542 453.873 834.243 468.988ZM1090.45 425.455C1089.92 423.717 1089.39 421.977 1088.86 420.239C1084.86 417.826 1076.92 416.737 1071.21 416.612V416.385C1071.81 416.233 1072.42 416.082 1073.02 415.93C1078.68 417.064 1084.34 418.198 1089.99 419.331C1100.46 421.579 1111.88 421.073 1121 424.772C1130.23 428.513 1137.69 435.626 1145.44 441.096C1161.39 452.344 1177.06 463.616 1192.52 475.334C1198.71 480.699 1204.9 486.067 1211.08 491.433V492.339C1198.18 491.66 1185.28 490.978 1172.38 490.299C1165.89 490.149 1159.4 489.997 1152.91 489.845C1142.6 488.294 1121.86 488.781 1113.08 490.978C1112.93 491.281 1112.78 491.583 1112.63 491.885C1112.55 492.489 1112.48 493.094 1112.4 493.7C1116.07 494.737 1121.78 494.154 1126.21 494.154C1139.33 494.304 1152.46 494.456 1165.59 494.608C1168.83 494.76 1172.08 494.91 1175.32 495.062H1142.5C1131.04 493.214 1117.13 496.169 1106.06 494.383C1103.8 494.308 1101.54 494.232 1099.27 494.156C1090.08 490.407 1088.51 483.003 1084.56 473.977C1079.13 462.037 1073.7 450.093 1068.27 438.153C1078.86 433.537 1094.46 446.05 1090.45 425.455ZM1088.64 488.94C1085.24 487.352 1084.27 482.24 1082.75 478.736C1078.49 468.878 1072.2 458.732 1069.63 447.901C1075.74 461.277 1081.85 474.658 1087.96 488.034C1088.18 488.336 1088.41 488.638 1088.64 488.94ZM1094.97 493.701C1095.05 493.929 1095.13 494.156 1095.2 494.381C1086.89 494.285 1078.81 492.66 1071.21 491.207C1068.12 490.753 1065.02 490.301 1061.93 489.847C1060.57 488.638 1059.21 487.428 1057.86 486.219C1054.99 484.783 1052.12 483.347 1049.26 481.912C1045.19 480.186 1039.22 480.554 1035 478.511C1057.66 479.038 1077.78 487.234 1094.97 493.701ZM1060.57 480.324C1055.74 479.342 1050.91 478.359 1046.09 477.376C1038.85 475.88 1030.85 476.174 1022.77 476.242C1019.63 470.468 1021.02 460.66 1017.12 455.609C1015.19 453.118 1009.99 452.865 1006.48 451.981C1000.22 450.545 993.956 449.11 987.695 447.674C983.768 447.024 981.366 448.86 977.963 449.035C973.846 444.102 970.059 436.605 967.552 430.442C969.974 427.878 978.665 428.882 982.715 428.174C993.126 427.116 1003.54 426.057 1013.95 425.001C1018.4 424.774 1022.85 424.547 1027.3 424.321C1038.12 424.164 1037.69 431.28 1041.11 438.153C1047.6 452.133 1054.09 466.118 1060.57 480.099L1060.57 480.324ZM1015.08 456.517C1016.67 459.088 1020.75 473.189 1019.83 476.696C1015.23 477.98 1010.63 479.265 1006.03 480.551C995.248 475.346 993.149 462.351 989.505 450.168C998.029 452.285 1006.56 454.4 1015.08 456.517ZM1451.44 604.122C1451.37 604.274 1451.29 604.425 1451.22 604.577C1449 605.314 1443.62 606.678 1443.07 603.67C1444.96 602.612 1446.84 601.553 1448.73 600.496C1450.49 593.344 1445.91 588.906 1443.75 584.398C1443.31 583.786 1443.47 584.019 1443.52 583.264C1444.05 583.339 1444.58 583.416 1445.11 583.491C1449.18 585.4 1451.21 597.833 1451.44 604.122ZM1445.33 571.473C1447.68 569.914 1451.22 570.161 1454.16 568.978L1455.07 569.205C1458.41 570.816 1466.12 588.763 1466.16 594.6C1463.92 596.923 1459.63 598.341 1455.07 598.228C1452.87 594.858 1445.35 575.961 1445.33 571.473ZM1443.3 579.635C1430.17 580.391 1417.04 581.145 1403.92 581.902C1389.85 584.054 1374.32 582.2 1359.78 584.396C1345.75 585.075 1331.72 585.757 1317.69 586.436L1317.23 585.982V585.075C1324.25 584.698 1331.27 584.319 1338.28 583.942C1343.34 583.715 1348.39 583.488 1353.44 583.262C1371.4 582.204 1389.36 581.145 1407.31 580.089C1418.78 579.409 1430.25 578.728 1441.71 578.049C1442.32 578.124 1442.92 578.201 1443.52 578.276C1443.6 578.503 1443.68 578.73 1443.75 578.955C1443.6 579.18 1443.45 579.407 1443.3 579.635ZM1319.49 612.057C1318.89 613.75 1313.8 613.413 1311.57 613.418H1287.81C1279.06 613.493 1270.31 613.57 1261.55 613.645C1258.58 613.645 1253.52 614.374 1251.37 613.191C1248.33 611.518 1247.07 605.956 1245.71 602.535C1242.99 596.036 1240.28 589.535 1237.56 583.035C1236.27 580.087 1233.9 577.215 1233.49 573.513L1233.94 573.058C1243.97 573.436 1254.01 573.815 1264.04 574.192C1269.02 574.419 1274 574.646 1278.98 574.871C1286.16 575.986 1294.98 574.131 1300.26 577.139C1306.11 580.475 1309.13 589.154 1312.25 595.277C1313.49 597.707 1320.63 608.854 1319.49 612.057ZM1234.62 583.035C1236.99 588.452 1246.73 606.1 1245.48 612.285C1240.48 614.856 1211.84 611.724 1208.14 609.336C1206.87 603.983 1204.1 579.388 1206.56 575.326C1207.98 572.964 1209.9 573.055 1212.67 571.925C1217.17 571.857 1227.37 571.976 1230.09 573.738C1232.39 575.226 1233.46 580.391 1234.62 583.035ZM1232.13 615.233V615.46C1230 616.253 1218.05 614.777 1216.29 613.872C1221.57 614.325 1226.85 614.779 1232.13 615.233ZM1222.17 566.484C1220.44 566.559 1218.7 566.636 1216.97 566.711C1217.26 563.843 1213.69 562.455 1211.76 561.043C1204.9 556.037 1196.88 552.551 1188.45 549.026C1165.36 539.378 1139.32 532.594 1113.53 525.447C1104.48 523.18 1095.43 520.912 1086.37 518.645C1083.48 517.844 1079.42 517.831 1077.32 516.151C1081.84 517.058 1086.37 517.966 1090.9 518.872C1137.49 531.824 1187.81 540.704 1222.17 565.806V566.484H1222.17ZM1464.57 566.257C1467.95 568.795 1479.53 592.102 1479.51 598.228C1477.15 600.76 1458.65 606.304 1456.88 600.949V600.722C1461.58 599.384 1465.25 598.916 1468.65 596.64C1471.43 585.047 1460.49 577.989 1459.37 568.524C1460.39 567.253 1461.97 567.085 1463.44 566.257H1464.57ZM1274.68 503.224C1283.11 504.749 1292.5 507.86 1301.16 510.026C1330.73 517.417 1360.1 523.122 1388.3 531.565C1407.3 537.258 1426.16 541.825 1443.07 549.25C1448.72 551.728 1458.47 555.215 1461.18 560.587C1459.31 563.819 1446.62 566.797 1442.17 567.843C1441.19 569.462 1441.59 572.087 1441.71 574.419C1441.49 574.571 1441.26 574.721 1441.03 574.873C1435.15 575.25 1429.26 575.63 1423.38 576.007C1411.16 576.611 1398.94 577.215 1386.71 577.822C1370.19 578.578 1353.67 579.332 1337.15 580.089C1328.55 580.391 1319.95 580.693 1311.35 580.995C1307.58 579.828 1305.37 572.262 1298.22 570.566C1274.15 569.357 1250.08 568.147 1226.02 566.938C1223.02 564.647 1220.71 561.534 1217.42 559.456C1182.55 537.418 1133.86 528.486 1089.09 516.829C1071.74 512.824 1054.38 508.817 1037.03 504.812C1036.81 504.662 1036.58 504.51 1036.35 504.358V504.131C1072.56 503.526 1108.78 502.922 1144.99 502.316C1176.83 502.468 1208.67 502.618 1240.51 502.77C1251.9 502.922 1263.29 503.074 1274.68 503.224ZM1136.62 411.623C1147.21 415.796 1156.48 423.729 1165.36 429.989C1184.18 443.258 1202.37 456.762 1220.36 470.801C1229.19 478.057 1238.02 485.312 1246.84 492.568C1247.22 493.022 1247.6 493.474 1247.97 493.929H1239.83C1231.6 493.324 1223.38 492.72 1215.15 492.114C1214.17 490.98 1213.19 489.847 1212.21 488.713C1207.46 484.556 1202.71 480.399 1197.95 476.242C1181.19 463.392 1164.16 451.101 1146.8 438.831C1138.89 433.236 1131.37 426.127 1121.91 422.28C1110.27 417.551 1094.57 417.686 1081.17 415.251C1074.95 414.121 1068.48 413.943 1066.91 419.106C1067.13 419.785 1067.36 420.466 1067.59 421.146C1069.16 422.121 1070.71 422.601 1073.47 422.507C1073.62 421.373 1073.77 420.239 1073.92 419.106C1083.14 417.859 1091.88 422.14 1088.64 433.39C1088.41 433.692 1088.18 433.994 1087.96 434.296C1082.15 434.146 1076.34 433.994 1070.53 433.842C1061.14 432.434 1050.87 434.499 1042.46 432.255C1041.11 430.029 1040.45 426.987 1040.43 423.411C1040.41 420.816 1040.51 418.552 1042.01 417.516C1044.8 415.592 1058.63 416.477 1063.51 416.61C1063.86 415.903 1064 415.144 1063.97 413.889C1047.92 408.83 1025.24 410.848 1009.19 406.406C1005.57 405.402 999.664 405.197 996.972 403.005L997.199 402.778C1009.57 403.08 1021.95 403.383 1034.32 403.685C1042.09 403.987 1049.86 404.289 1057.63 404.591C1076.04 407.513 1096.4 405.316 1113.98 408.219C1121.82 409.515 1130.04 409.031 1136.62 411.623ZM1130.28 406.635L1130.51 407.314C1124.93 406.483 1119.34 405.651 1113.76 404.82C1107.35 404.291 1100.93 403.762 1094.52 403.232C1081.25 402.703 1067.96 402.174 1054.69 401.645C1037.79 401.115 1020.89 400.586 1003.99 400.057C986.712 398.01 959.073 397.903 947.181 403.685C946.727 403.61 946.276 403.533 945.823 403.458C945.748 403.004 945.671 402.551 945.596 402.097C952.647 397.442 965.849 398.242 976.829 398.242C980.376 398.167 983.922 398.09 987.467 398.015C1000.64 398.027 1014.41 397.02 1026.62 398.922C1031.98 399.074 1037.34 399.224 1042.69 399.376H1051.52C1060.87 399.98 1070.23 400.584 1079.59 401.191C1093.28 403.332 1108.19 400.976 1121.23 403.685C1124.6 404.387 1127.44 405.73 1130.28 406.635ZM920.247 390.536C922.057 390.384 923.868 390.234 925.678 390.082C937.37 390.157 949.067 390.234 960.759 390.309C967.775 390.461 974.793 390.611 981.809 390.763C991.163 391.065 1000.52 391.367 1009.87 391.67C1021.04 392.274 1032.21 392.878 1043.37 393.484C1049.18 393.787 1054.99 394.089 1060.8 394.391C1075.48 396.73 1091.53 396.344 1104.93 399.379V399.606C1088.26 398.775 1071.58 397.944 1054.91 397.112C1039.3 396.658 1023.68 396.206 1008.06 395.751C994.711 395.676 981.354 395.6 968.002 395.524C962.072 396.468 955.884 395.895 950.8 397.339C948.537 398.171 946.274 399.002 944.011 399.833C942.276 398.548 940.54 397.264 938.805 395.979C934.024 393.249 927.054 390.943 920.245 390.763L920.247 390.536ZM884.714 391.444C887.882 391.292 891.052 391.142 894.22 390.99C912.15 390.943 929.167 391.719 939.712 399.152C945.416 403.175 948.204 411.971 951.934 417.971C960.156 431.346 968.38 444.727 976.604 458.103C982.035 466.718 987.468 475.336 992.899 483.952C994.627 486.512 999.922 491.702 1000.6 494.381C998.03 497.857 995.464 501.334 992.899 504.81H992.446C987.564 500.87 981.753 487.302 978.187 481.23C968.38 463.698 958.571 446.16 948.764 428.629C944.783 421.771 940.623 408.359 934.732 403.914C915.949 389.747 869.833 398.684 843.068 398.925V398.698C849.328 390.76 872.115 393.395 884.714 391.444ZM692.559 446.086C691.311 442.633 696.777 433.449 697.99 430.669C700.386 425.186 705.423 410.285 709.759 407.541C712.51 405.802 717.45 406.991 721.301 406.408C730.428 405.954 739.559 405.501 748.686 405.047C752.383 404.972 756.081 404.895 759.777 404.82H761.135L761.362 405.047V405.274C753.769 410.275 732.088 405.302 725.149 410.036C721.719 412.374 720.346 418.267 718.585 422.28C714.512 430.29 710.437 438.303 706.363 446.313C703.65 449.929 695.004 451.143 692.559 446.086ZM744.162 415.251C738.654 419.483 733.146 423.717 727.64 427.949C725.841 429.346 723.397 433.039 720.624 432.483C721.24 426.555 724.94 419.043 727.867 414.799C730.96 414.421 734.053 414.042 737.146 413.665H743.484L743.937 414.572C744.012 414.797 744.087 415.024 744.162 415.251ZM668.795 490.301C669.271 492.213 664.483 517.655 663.364 518.869H663.137C663.727 508.969 666.422 498.887 668.795 490.301ZM664.269 540.183C664.872 534.138 665.475 528.089 666.08 522.044C667.06 516.149 668.042 510.253 669.023 504.359C669.825 497.184 669.784 485.325 673.55 479.872C681.999 472.541 690.449 465.208 698.899 457.878C712.698 446.857 725.974 435.175 740.091 424.321C748.625 417.759 755.622 409.974 767.251 406.41C783.348 401.474 801.866 400.686 819.534 397.566C827.455 396.66 835.378 395.751 843.298 394.845H843.525L843.752 395.299C838.145 402.116 831.668 399.912 821.346 401.648C808.088 403.877 793.547 403.802 781.285 407.543C773.788 409.831 768.828 416.397 763.857 421.375C752.969 432.281 741.831 443.286 732.17 455.385C727.159 461.661 720.651 466.045 719.043 475.791C717.558 484.799 731.865 484.645 738.054 486.221C759.765 491.749 782.622 498.021 806.179 500.732C806.875 502.775 803.876 507.558 803.011 510.027C800.451 517.334 798.279 525.69 797.58 534.288C795.394 535.261 775.198 532.737 771.099 532.021C746.055 529.074 721.003 526.126 695.957 523.178C695.76 518.21 700.189 510.658 699.352 506.173C698.611 502.199 686.671 497.705 681.924 500.957C679.464 502.643 671.846 525.132 674.003 529.979C675.616 533.607 686.153 536.58 691.883 535.874C693.781 533.301 694.766 529.158 695.051 524.991C697.371 523.759 717.317 526.914 721.984 527.712C746.878 530.508 771.779 533.305 796.673 536.101C798.317 539.752 797.127 551.094 797.127 556.055C797.127 569.048 797.657 581.989 799.163 593.92C798.861 594.147 798.56 594.374 798.258 594.6C778.569 592.408 758.874 590.216 739.186 588.024C736.705 586.495 733.009 573.361 731.49 569.885C726.661 558.827 719.549 546.7 708.631 541.769C696.993 536.513 681.993 539.608 675.813 547.664C671.327 553.51 670.514 561.178 666.985 568.297C666.577 568.755 666.99 568.465 666.307 568.751C663.72 567.073 660.709 565.295 658.838 562.856V562.629C660.044 561.269 661.253 559.908 662.459 558.547C663.061 552.427 663.664 546.303 664.269 540.183ZM690.749 533.607C686.016 534.55 677.812 531.752 676.264 528.619C673.856 523.744 682.258 503.935 684.638 502.318C689.016 502.297 695.178 503.432 696.634 506.4C697.2 508.118 691.829 531.122 690.749 533.607ZM738.958 599.134C738.581 599.511 738.203 599.89 737.826 600.268C737.223 600.193 736.62 600.116 736.015 600.041C731.982 595.987 730.545 587.842 727.867 582.581C721.747 570.563 712.869 558.54 700.255 553.105C689.046 548.275 675.269 555.782 671.963 563.988L671.058 564.668C672.754 556.142 677.812 546.377 685.09 543.355C687.73 542.826 690.371 542.297 693.011 541.767C723.979 541.502 730.585 576.164 738.958 599.134ZM662.004 527.258H662.682C662.63 537.9 661.791 548.359 659.739 557.641C659.286 557.793 658.834 557.943 658.381 558.095C658.229 549.706 658.079 541.315 657.928 532.928C659.289 531.038 660.647 529.148 662.004 527.258ZM650.915 574.192C652.385 571.303 655.272 570.456 658.158 568.977C660.9 569.736 664.431 569.855 665.854 571.925C666.586 573.663 665.294 577.324 664.042 578.047C659.743 577.14 655.441 576.232 651.142 575.326C651.065 574.948 650.99 574.571 650.915 574.192ZM651.82 578.047C655.818 578.651 659.818 579.256 663.815 579.86C664.108 580.452 664.22 580.651 664.269 581.675L663.591 582.129C661.528 582.916 654.078 581.795 652.273 580.768C651.266 580.028 651.389 579.088 651.82 578.047ZM652.498 583.262C656.12 583.64 659.741 584.019 663.362 584.396C664.917 587.807 663.148 593.779 663.815 598.001C664.269 600.268 664.72 602.535 665.174 604.802C659.743 604.042 650.746 589.908 652.498 583.262ZM669.022 624.529C663.416 621.563 661.791 616.445 661.326 608.43C665.327 610.346 669.642 617.734 669.473 624.301C669.323 624.377 669.172 624.453 669.022 624.529ZM669.247 605.483L669.02 605.71H668.342C666.579 601.992 665.749 595.145 666.53 589.838C669.13 572.208 669.607 561.606 683.958 555.601C686.448 554.996 688.938 554.392 691.428 553.786C708.994 553.865 723.245 575.609 728.545 588.703C725.935 587.341 724.232 583.264 722.434 580.993C717.341 574.561 710.339 567.314 702.291 563.988C698.25 562.318 692.395 562.093 687.806 563.309C671.243 567.693 668.947 584.261 669.247 605.483ZM684.412 657.631C673.994 637.11 673.04 601.265 686.901 583.715C689.269 580.716 692.362 579.696 695.954 577.82C708.755 577.598 717.071 588.134 719.04 598.226C713.942 591.456 712.801 583.041 704.328 579.633C693.462 575.264 687.362 584.971 683.958 590.743C673.067 609.219 678.189 646.604 688.258 661.711C691.002 665.828 696.663 673.489 704.328 672.14C709.121 671.297 712.097 667.512 714.513 664.205C726.861 647.303 725.855 614.277 714.74 596.411C711.638 591.424 706.443 582.927 697.312 585.074C686.037 587.727 678.02 608.856 680.79 625.659C683.791 643.866 686.528 667.789 707.949 667.604C704.832 677.24 691.328 662.584 689.843 660.349C678.423 643.167 675.166 609.114 687.126 590.287C689.522 586.516 692.55 582.511 697.537 581.444C708.638 579.07 713.192 590.252 716.322 596.409C726.507 616.433 727.982 647.63 715.19 665.791C712.236 669.983 709.485 673.779 703.421 674.862C693.926 676.559 687.334 663.388 684.412 657.631ZM703.876 610.244C709.59 612.265 713.649 606.666 716.55 604.802C719.13 607.111 719.02 613.879 719.945 617.725C717.519 620.275 713.579 620.288 711.57 623.393C707.632 629.484 710.029 640.629 714.513 644.253C716.022 645.01 717.532 645.764 719.04 646.52C719.266 646.672 719.493 646.823 719.718 646.975C719.273 651.49 716.963 655.577 715.192 658.992H714.287C709.968 655.64 706.424 647.74 699.348 647.654C693.147 653.67 704.415 662.043 708.176 664.432C708.101 664.81 708.024 665.189 707.949 665.566C697.99 667.611 689.656 656.707 687.806 648.788C687.655 644.783 687.505 640.776 687.353 636.771C686.825 634.731 686.296 632.689 685.768 630.649C684.846 629.281 682.897 629.424 682.374 627.475C682.448 623.772 682.525 620.068 682.6 616.365C684.889 601.592 687.433 593.15 698.443 587.342C702.726 587.302 704.582 588.265 707.044 589.837V590.516C705.838 591.272 704.63 592.027 703.423 592.783C700.602 596.54 697.389 607.949 703.876 610.244ZM716.55 668.741C716.4 668.816 716.248 668.893 716.097 668.968C717.983 665.038 719.87 661.108 721.754 657.179C722.624 660.946 717.804 665.713 716.55 668.741ZM694.371 676.903L694.597 676.676C696.105 677.281 697.615 677.885 699.123 678.491C704.95 679.66 711.401 676.117 712.93 672.823C716.717 677.118 694.491 688.075 694.371 676.903ZM729.677 661.713C726.558 674.542 720.459 685.766 704.101 685.52V685.292C706.556 683.478 710.095 683.121 712.475 681.438C721.923 674.753 730.425 659.428 728.77 642.893C732.794 645.539 730.787 657.144 729.677 661.713ZM734.43 605.256C734.731 604.879 735.033 604.5 735.335 604.122C749.996 604.056 755.371 636.558 767.021 641.761C778.766 647.006 800.105 646.002 814.551 648.562C849.477 653.247 884.416 657.935 919.342 662.619C932.467 664.432 945.598 666.247 958.723 668.06C963.165 668.9 971.175 671.085 975.698 669.875C975.924 669.95 976.151 670.027 976.376 670.102C976.149 670.933 975.923 671.765 975.698 672.596C924.552 665.568 873.392 658.537 822.246 651.509C808.214 649.771 794.178 648.031 780.148 646.293C775.043 645.364 768.477 646.166 764.305 644.026C759.688 641.658 757.43 632.893 754.799 628.382C750.991 621.849 746.307 612.154 740.314 607.749C738.579 607.144 736.843 606.54 735.108 605.935L734.43 605.256ZM952.838 685.747C945.673 684.765 938.503 683.782 931.337 682.798C885.849 675.543 840.348 668.287 794.86 661.032C786.184 659.671 777.507 658.31 768.833 656.95C764.533 656.723 760.232 656.496 755.933 656.27C750.592 655.418 744.61 657.4 742.579 653.322C740.841 648.877 746.261 641.146 745.069 634.277C743.51 625.299 739.19 617.348 738.053 608.882C741.104 610.182 742.908 613.879 744.617 616.592C748.09 622.108 759.643 644.428 764.308 646.293C788.901 649.392 813.5 652.491 838.092 655.589C883.581 661.861 929.081 668.135 974.57 674.407L974.796 674.634C974.172 679.909 970.647 685.635 965.969 686.878C961.94 687.951 956.381 686.412 952.838 685.747ZM1000.14 701.164C993.637 700.885 974.092 694.565 969.587 691.642V690.735C971.548 688.393 973.51 686.049 975.471 683.706C983.251 670.86 985.24 652.419 993.578 640.173C995.387 640.325 997.199 640.475 999.009 640.627C1000.75 644.026 999.687 651.836 999.687 656.499C999.839 671.235 999.988 685.975 1000.14 700.712L1000.14 701.164ZM1003.08 701.164H1002.86C1001.06 697.15 1002.56 688.929 1002.4 683.932C1002.03 669.27 1001.65 654.606 1001.27 639.944C1000.32 637.937 997.387 637.67 994.709 637.45C994.634 637.073 994.557 636.694 994.482 636.317C994.709 636.09 994.936 635.862 995.161 635.637C998.573 635.567 1002.37 635.485 1003.76 637.452C1007.74 643.073 1005.9 671.387 1007.38 680.985C1008.49 688.129 1009.72 700.307 1003.08 701.164ZM1009.87 615.458C1009.72 615.533 1009.57 615.61 1009.42 615.685C1007.5 605.743 1013.1 599.307 1017.57 594.825C1029.02 583.35 1047.95 576.236 1071.43 581.22C1090.08 585.178 1101.57 592.233 1113.76 602.081C1119.27 606.529 1122.25 613.733 1127.79 618.179H1128.69L1128.92 617.952C1127.65 612.665 1119.43 605.27 1115.79 601.628C1105.53 591.344 1093.15 584.221 1076.64 580.089C1071.46 578.791 1066.65 579.009 1060.8 578.049C1053.84 576.908 1044.96 577.839 1039.07 579.636C1030.22 582.333 1023.49 586.759 1017.11 591.88C1010.37 597.302 1007.78 605.35 1005.12 615.008C1003.84 619.636 1002.84 629.276 999.007 631.332C998.553 631.407 998.102 631.484 997.649 631.559C995.978 627.554 1002.86 610.587 1004.44 606.844C1011.49 590.162 1023.32 575.949 1039.75 568.753C1045.67 566.156 1052.34 565.431 1058.53 562.858C1091.58 562.835 1111.73 578.531 1125.52 598.002C1128.09 601.623 1137.77 614.342 1136.84 619.315C1136.03 620.969 1134.47 621.255 1132.77 622.036C1123.33 626.352 1118.75 615.023 1113.98 610.246C1103.37 599.616 1090.51 592.572 1073.02 588.707C1045.6 582.646 1015.12 595.498 1009.87 615.458ZM1108.78 627.475C1111.41 628.771 1115.41 637.204 1116.93 640.171C1118.68 643.612 1120.25 647.088 1121.68 651.055C1127.06 665.973 1134.22 710.222 1116.02 715.901C1118.3 710.421 1120.86 704.628 1122.36 697.762C1128.48 669.746 1116.32 646.442 1108.78 627.475ZM1018.93 672.823C1015.68 655.241 1024.3 630.563 1030.7 621.355H1031.37C1031.53 621.507 1031.68 621.657 1031.83 621.809C1024.95 635.789 1019.01 651.745 1019.38 672.598L1018.93 672.823ZM1050.84 732.454C1035.93 720.678 1018.33 686.159 1024.59 656.497C1028.59 637.511 1034.39 622.712 1048.58 614.098C1052.85 611.502 1057.55 611.657 1062.84 609.563C1071.11 609.516 1077.24 611.071 1082.53 614.098C1105.56 627.29 1125.56 665.1 1115.8 703.431C1110.4 724.62 1097.71 741.697 1078.45 749.005H1076.87C1077.39 747.731 1088.3 742.759 1090.22 741.295C1098.2 735.196 1103.8 727.079 1109.01 718.168C1113.35 710.727 1114.28 702.488 1116.02 692.094C1121.03 662.277 1104.4 631.393 1088.41 619.992C1082.03 615.442 1072.1 609.86 1060.12 612.057C1034.36 616.775 1019.55 650.489 1026.39 683.252C1031.73 708.799 1042.98 733.398 1068.94 738.123C1083.05 740.691 1093.32 731.117 1098.82 723.839C1104.52 716.302 1109.56 707.225 1111.95 696.405C1117.63 670.684 1104.08 640.025 1091.58 629.971C1084.96 624.653 1075.83 616.62 1062.61 619.088C1040.5 623.213 1026.6 652.372 1032.96 681.439C1037.34 701.503 1044.3 717.312 1059.44 726.56C1064.29 729.524 1072.91 732.934 1081.39 730.642C1085.39 728.979 1089.39 727.317 1093.39 725.654H1094.52V725.881C1092.8 728.125 1089.74 729.587 1087.28 731.096C1075.08 738.56 1062.07 735.335 1052.42 727.696C1030.04 709.976 1017.52 659.481 1038.16 630.2C1043.31 622.904 1049.46 616.725 1059.67 614.555C1074.89 611.319 1088.67 621.533 1094.52 628.839C1103.75 640.367 1108.82 650.485 1112.63 667.838C1119.76 700.387 1102.44 735.716 1078.9 741.073C1066.63 743.864 1057.1 737.404 1050.84 732.454ZM1083.66 725.879C1083.73 726.181 1083.81 726.484 1083.88 726.786C1072.76 730.387 1064.55 727.5 1056.95 721.797C1055.71 720.866 1053.6 719.761 1053.1 718.17C1053.18 715.448 1053.25 712.727 1053.33 710.007C1051.59 698.604 1051.92 681.813 1043.37 678.037C1042.69 677.962 1042.01 677.885 1041.33 677.81C1035.8 685.741 1048.28 701.763 1050.39 707.511C1050.69 710.006 1050.99 712.5 1051.29 714.994V715.674C1046.62 714.196 1041.2 700.293 1039.3 695.04C1037.59 690.337 1036.32 684.924 1035.22 679.396C1030.94 657.823 1039.8 634.304 1051.29 626.113C1054.76 623.645 1058.39 623.432 1062.84 621.578C1067.02 621.481 1074.67 620.974 1076.19 623.618C1069.63 632.076 1068.43 645.986 1078.68 651.734C1086.1 655.898 1097.83 650.482 1099.73 644.706L1100.41 644.252C1103.13 647.726 1106.45 655.123 1106.74 660.35C1101.57 664.235 1096.53 665.732 1093.16 671.461C1087.01 681.937 1093.89 695.528 1101.31 699.576C1103.42 700.031 1105.54 700.483 1107.65 700.937C1108.31 707.297 1102.07 714.638 1099.05 718.622H1097.92C1092.24 714.149 1079.87 698.08 1069.62 707.284C1068.18 708.58 1067.17 710.968 1067.13 713.633C1067 722.805 1075.08 725.327 1083.66 725.879ZM1074.38 757.169V756.714C1082.3 755.672 1093.28 752.213 1094.3 744.243C1096.71 743.698 1100.02 744.451 1102.22 743.337H1103.12C1101.07 750.034 1084.2 757.31 1074.38 757.169ZM1106.52 747.192H1106.29C1107.07 744.909 1110.08 743.753 1111.5 741.976C1114.54 738.176 1117.58 734.258 1120.1 729.959C1129.12 714.535 1131.05 693.594 1130.73 668.741H1131.19C1133.13 673.211 1132.72 678.114 1133.68 683.932C1137.91 709.527 1120.95 739.356 1106.52 747.192ZM1489.02 690.056C1486.79 694.728 1476.66 695.02 1471.14 696.405C1452.22 701.138 1431.42 702.649 1411.39 706.608C1380.99 711.37 1350.58 716.131 1320.18 720.893C1308.71 721.951 1297.24 723.009 1285.77 724.066C1277.93 724.822 1270.08 725.577 1262.23 726.333C1245.57 729.074 1223.19 729.807 1205.88 727.013C1188.92 724.278 1155.98 725.733 1145.22 717.717C1143.53 710.687 1149.11 704.088 1150.88 698.445C1154.02 696.64 1172.31 701.087 1176.91 702.072C1198.54 706.708 1220.45 709.228 1246.39 709.101C1266.78 709.001 1286.69 705.664 1305.23 702.752C1307.89 702.336 1309.37 704.319 1311.12 705.019C1314.02 706.184 1319.35 706.343 1323.11 705.698C1353.67 701.164 1384.23 696.628 1414.78 692.094C1428.21 690.054 1441.64 688.012 1455.07 685.972C1457.22 685.322 1458.97 683.614 1460.72 683.024C1469.07 680.218 1479.11 681.776 1485.39 677.129H1486.07C1487.71 678.741 1490.67 687.221 1489.02 690.056ZM1492.18 656.497C1490.29 661.311 1487.34 671.885 1483.81 674.636C1481.52 676.421 1478.25 676.736 1474.98 677.585C1472.75 678.166 1462.35 680.664 1460.95 679.172C1461.33 678.266 1461.71 677.357 1462.08 676.451C1467.33 673.511 1475.93 674.455 1481.55 672.144C1487.2 669.817 1491.86 658.845 1492.18 651.511C1488.84 650.62 1484.24 651.844 1481.32 652.417C1467.15 655.2 1466.61 657.446 1461.86 669.422C1460.78 672.13 1458.73 681.474 1456.88 682.8C1452.89 685.654 1434.17 686.498 1427.68 687.788C1400.07 691.869 1372.45 695.95 1344.84 700.032C1335.64 701.859 1316.87 705.669 1309.53 701.166L1309.31 700.486C1318.06 699.505 1326.81 698.522 1335.56 697.538C1363.93 693.381 1392.3 689.224 1420.66 685.067C1431.07 683.782 1441.48 682.498 1451.89 681.212C1454.21 680.428 1454.8 676.615 1455.74 674.411C1458.48 668.025 1460.98 660.022 1465.02 654.684C1470.23 647.797 1485.99 650.201 1494.45 646.522H1495.35C1496.08 649.659 1493.21 653.884 1492.18 656.497ZM1463.67 672.596C1464.31 669.14 1469.42 658.833 1471.81 657.179C1474.16 655.558 1477.7 656.09 1480.64 654.911H1481.77C1483.06 657.641 1482.41 666.258 1481.09 668.516C1479.68 670.848 1467.78 672.111 1464.12 672.823C1463.97 672.748 1463.82 672.671 1463.67 672.596ZM1450.76 656.045C1453.63 655.591 1456.5 655.138 1459.37 654.684C1460.58 654.745 1460.61 654.758 1461.18 655.364C1457.93 662.619 1454.69 669.875 1451.44 677.13C1449.85 678.229 1444.64 678.61 1442.39 677.585C1441.64 676.938 1448.88 657.103 1450.76 656.045ZM1484.94 645.841C1465.2 650.311 1443.48 650.155 1422.47 653.776C1402.56 655.968 1382.64 658.16 1362.72 660.352C1355.78 660.881 1348.84 661.411 1341.9 661.94C1329.38 662.771 1316.85 663.603 1304.33 664.434C1291.06 666.542 1277.03 664.981 1263.14 667.155C1256.07 668.261 1243.03 669.036 1235.3 667.835C1222.48 666.928 1209.65 666.02 1196.82 665.114C1180.3 663.526 1163.78 661.94 1147.26 660.352C1147.18 661.032 1147.1 661.713 1147.03 662.392C1153.41 665.487 1169.24 664.411 1177.58 665.793C1191.62 667.154 1205.65 668.514 1219.68 669.875C1224.96 670.027 1230.24 670.177 1235.53 670.329C1244.02 671.639 1255.86 671.117 1264.04 669.875C1274.75 669.195 1285.47 668.514 1296.18 667.835C1301.04 667.07 1306.89 666.771 1309.08 669.65C1310.52 677.253 1306.79 685.593 1305.23 691.87C1304.68 694.099 1304.93 698.995 1303.2 700.032C1292.18 701.393 1281.17 702.754 1270.15 704.114C1228.18 711.436 1189 699.442 1152.91 694.592C1150.7 690.868 1151.01 684.278 1149.52 680.308C1145.04 668.39 1139.97 656.625 1135.03 645.39C1134.11 643.298 1128.08 631.283 1129.15 629.519C1131.59 625.48 1145 624.988 1151.78 626.118C1170.49 627.479 1189.2 628.839 1207.91 630.2C1213.49 630.427 1219.08 630.654 1224.66 630.879C1231.21 631.938 1240.83 632.385 1247.52 631.333C1253.85 631.106 1260.19 630.879 1266.53 630.654C1278 630.2 1289.46 629.747 1300.93 629.293C1310.81 628.916 1320.7 628.537 1330.58 628.16C1337.9 627.706 1345.22 627.253 1352.53 626.799C1375.57 623.091 1400.42 625.115 1422.92 621.358C1447.29 619.091 1471.66 616.824 1496.03 614.557C1500.34 614.485 1502.11 615.135 1504.4 616.824C1504.33 617.201 1504.25 617.58 1504.18 617.958C1497.54 618.714 1490.9 619.468 1484.26 620.225C1466.31 622.115 1448.35 624.005 1430.39 625.893C1424.51 626.347 1418.62 626.799 1412.74 627.253C1393.05 628.916 1373.36 630.579 1353.67 632.242C1339.94 633.223 1326.21 634.207 1312.48 635.19C1305.61 635.567 1298.74 635.946 1291.88 636.324C1275.95 638.783 1258.13 637.913 1240.95 637.911C1224.41 637.91 1207.92 637.555 1192.75 635.19C1184.07 634.586 1175.39 633.981 1166.72 633.375C1162.48 632.708 1145.55 631.201 1144.09 633.829C1142.68 637.609 1149.95 651.151 1151.33 654.69C1167.9 659.674 1189.49 657.208 1207.91 660.132C1218.19 661.763 1229.68 661.493 1241.18 661.493C1246.69 661.418 1252.2 661.341 1257.7 661.266C1269.24 659.484 1280.83 661.147 1291.65 659.451C1297.84 659.074 1304.03 658.695 1310.21 658.317C1333.98 655.975 1357.74 653.631 1381.51 651.289C1387.32 650.835 1393.13 650.382 1398.93 649.928C1422.62 647.359 1446.32 644.788 1470 642.219C1480.64 640.409 1491.75 641.211 1501.69 638.591H1503.05C1502.14 644.185 1490.37 644.611 1484.94 645.841ZM1503.95 635.864C1502.2 637.932 1486.8 638.117 1482.68 638.813C1462.39 641.005 1442.09 643.197 1421.79 645.389C1389.05 648.637 1356.31 651.888 1323.57 655.138C1314.67 655.895 1305.76 656.649 1296.86 657.406C1286 658.085 1275.13 658.766 1264.27 659.446H1229.86C1217.01 657.509 1203.96 658.862 1191.84 656.951C1179.21 654.959 1165.36 656.903 1153.59 653.551C1151.72 652.648 1145.78 637.703 1145.67 634.505C1148.64 633.171 1170.25 635.174 1174.64 635.866C1181.13 636.243 1187.62 636.622 1194.11 637C1210.71 639.67 1228.5 639.494 1247.07 639.494C1264.29 639.494 1282.85 640.147 1298.67 637.679C1305.23 637.302 1311.8 636.923 1318.36 636.545C1333.87 634.121 1349.66 635.555 1364.53 633.145C1383.84 631.482 1403.16 629.819 1422.47 628.156C1442.69 626.191 1462.91 624.226 1483.13 622.261C1490.07 621.505 1497.01 620.751 1503.95 619.994H1505.09C1505.91 621.788 1504.97 634.236 1503.95 635.864ZM1172.83 566.03L1173.06 564.896C1115.2 558.472 1057.32 552.048 999.464 545.624C999.312 545.699 999.162 545.776 999.01 545.851L998.784 546.305L999.01 546.985C1056.95 553.332 1114.9 559.683 1172.83 566.03ZM1245.03 695.269C1247 699.077 1258.06 699.711 1264.5 698.67C1273.85 697.157 1294.51 699.454 1300.26 694.815C1302.95 692.637 1303.44 687.243 1304.33 683.252C1305.19 679.389 1305.39 675.99 1303.43 673.276C1301.24 672.724 1297.9 672.774 1295.05 672.821C1291.58 673.049 1288.11 673.276 1284.64 673.501C1276.22 674.874 1251.06 673.983 1246.16 677.583C1243.74 679.366 1242.97 683.341 1243.67 687.56C1244.13 690.131 1244.58 692.7 1245.03 695.269ZM1288.26 675.77C1291.73 675.543 1295.2 675.316 1298.67 675.09C1299.65 675.241 1300.63 675.392 1301.61 675.544C1302.9 677.736 1302.4 681.186 1301.84 683.706C1298.45 698.934 1292.64 692.965 1277.85 695.269C1274.69 695.762 1267.21 697.011 1264.5 695.496L1264.04 695.042C1259 682.763 1279.8 677.192 1288.26 675.77ZM888.787 641.986C912.173 645.085 935.564 648.183 958.95 651.282L959.176 651.055V650.148C910.445 643.649 861.698 637.148 812.966 630.649C812.891 630.801 812.815 630.951 812.74 631.103C812.891 631.33 813.041 631.557 813.193 631.782C837.695 636.895 863.614 637.401 888.787 641.986ZM692.559 592.785C691.26 594.532 684.818 606.255 686.221 608.203C686.706 609.123 688.076 609.783 689.164 609.336C691.297 608.026 693.598 597.375 693.464 593.237C693.162 593.087 692.861 592.937 692.559 592.785ZM1372.45 531.794C1388.4 537.366 1405.04 542.096 1418.63 550.16C1423.01 552.761 1426.98 555.877 1430.85 559.003C1433.26 560.954 1435 564.666 1438.09 565.805C1438.24 565.73 1438.39 565.653 1438.54 565.578C1438.62 565.351 1438.69 565.123 1438.77 564.898C1434.09 555.81 1416.32 546.653 1406.18 542.225C1381.05 531.249 1352.56 524.381 1323.57 517.058C1314.22 514.696 1304.65 512.89 1294.83 510.481C1290.45 509.575 1286.07 508.667 1281.7 507.76L1281.47 508.667V508.894C1287.27 512.136 1301.11 513.15 1308.41 515.016C1329.81 520.483 1352.17 524.703 1372.45 531.794ZM1139.56 512.974C1134.2 511.915 1128.85 510.857 1123.49 509.8C1123.34 510.178 1123.19 510.557 1123.04 510.934V511.161C1158.04 518.944 1193.05 526.73 1228.05 534.515C1248.66 539.776 1271.64 544.618 1288.26 554.469C1291.88 557.038 1295.5 559.609 1299.12 562.179C1301.76 564.313 1303.37 567.375 1306.59 568.98H1307.27V568.301C1298.73 555.938 1284.39 550.177 1269.25 544.267C1239.75 532.753 1205.15 528.266 1172.6 520.006C1161.59 517.66 1150.57 515.316 1139.56 512.974ZM697.312 618.179C696.435 617.69 695.818 616.716 695.275 615.912H692.332C691.956 616.442 691.578 616.971 691.201 617.5C691.654 617.877 692.106 618.256 692.559 618.634C693.162 618.179 693.766 617.727 694.369 617.273C694.822 617.5 695.274 617.727 695.727 617.952C696.013 619.411 695.76 620.611 695.274 621.807C694.519 621.882 693.766 621.959 693.011 622.034C692.557 621.505 692.106 620.976 691.652 620.447H690.748C690.673 620.824 690.596 621.203 690.521 621.58C692.24 623.304 693.619 623.456 696.179 624.529C697.959 625.592 698.299 629.346 698.895 631.557C698.745 631.709 698.593 631.859 698.442 632.011C697.411 630.829 697.265 629.568 695.725 628.837C695.197 628.762 694.669 628.685 694.14 628.61C693.687 629.065 693.236 629.517 692.782 629.971C693.159 631.456 693.844 631.044 694.367 632.011C694.594 633.447 694.82 634.883 695.045 636.318C696.581 637.138 700.384 637.986 702.061 638.133C704.047 636.24 704.352 632.565 702.966 629.744C702.74 629.669 702.513 629.592 702.288 629.517C701.563 630.72 702.93 632.907 702.061 634.732V635.187C701.458 634.657 700.855 634.128 700.25 633.599H700.928C701.547 631.031 700.367 628.528 699.796 626.57C698.511 622.153 700.417 619.079 702.059 616.366C701.139 615.668 699.007 616.202 697.985 616.821C697.366 617.301 697.465 617.156 697.312 618.179ZM695.275 632.236V630.649C695.502 630.876 695.729 631.103 695.954 631.328L696.18 632.235C696.03 632.31 695.879 632.387 695.727 632.462L695.275 632.236ZM699.348 634.958C698.443 635.033 697.537 635.11 696.632 635.185L696.179 634.958V634.504C696.405 634.201 696.632 633.899 696.857 633.597C697.612 633.824 698.365 634.051 699.12 634.277L699.348 634.958ZM1056.72 628.836C1056.12 628.761 1055.52 628.684 1054.91 628.609C1052.3 629.961 1040.54 639.873 1042.24 643.799C1043.58 646.896 1051.74 638.994 1052.88 638.584V638.811C1050.23 643.782 1042.81 649.528 1044.73 656.95C1052.35 661.467 1056.53 644.437 1057.86 638.811C1058.59 635.697 1059.38 630.097 1056.72 628.836ZM1080.26 689.374C1080.49 687.561 1080.72 685.747 1080.94 683.932C1080.5 683.57 1080.63 683.624 1079.81 683.478C1078.01 686.241 1078.02 691.191 1073.02 690.054C1072.64 689.827 1072.27 689.6 1071.89 689.374V688.468C1073.66 686.802 1076.87 686.948 1077.77 684.386C1075.59 684.613 1073.4 684.84 1071.21 685.065C1070.68 684.082 1070.15 683.1 1069.62 682.117V681.211C1073.08 680.398 1079.83 679.694 1080.04 682.117L1080.49 682.571C1080.34 681.513 1080.19 680.454 1080.04 679.398C1080.31 671.66 1076.07 664.31 1068.49 663.98C1065.32 665.761 1063.69 669.529 1062.61 673.276C1061.12 674.208 1057.97 674.399 1055.82 674.636C1055.52 675.241 1055.22 675.845 1054.91 676.451C1055.48 677.653 1056.07 678.116 1056.95 678.945C1059.64 678.397 1061.42 678.095 1064.87 678.039C1066.19 680.811 1067.12 683.107 1069.17 685.067C1069.1 685.369 1069.02 685.671 1068.94 685.974C1067.21 686.201 1065.47 686.428 1063.74 686.653C1063.1 685.666 1062.67 684.657 1062.61 683.025C1062.1 683.341 1061.85 682.767 1061.93 683.705C1062.19 686.625 1060.05 686.326 1059.44 689.146C1059.51 689.298 1059.59 689.448 1059.67 689.6C1062.14 690.817 1065.89 689.993 1068.49 689.373C1071.88 692.466 1077.13 695.799 1080.26 689.374ZM1071.66 666.247C1072.12 666.397 1072.57 666.549 1073.02 666.701C1072.65 667.686 1073.02 667.37 1071.89 667.608L1071.44 667.381C1071.51 667.003 1071.59 666.626 1071.66 666.247ZM1070.98 669.195H1075.28C1076.28 670.528 1077.09 671.765 1077.77 673.503C1077.65 674.414 1077.63 674.35 1077.32 674.863C1074.45 674.636 1071.58 674.409 1068.72 674.184C1068.57 674.032 1068.42 673.882 1068.26 673.73C1068.47 671.349 1069.58 670.35 1070.98 669.195ZM1068.95 679.172C1068.51 678.426 1068.32 678.189 1068.27 676.905C1069.92 676.158 1073.42 676.928 1075.28 676.226C1076.11 676.301 1076.94 676.378 1077.77 676.453C1078 676.83 1078.23 677.209 1078.45 677.586C1077.29 679.93 1072.4 679.312 1068.95 679.172ZM1061.03 679.625C1060.53 678.893 1060.64 679.005 1059.44 678.945C1059.29 679.247 1059.14 679.549 1058.99 679.852C1059.59 680.306 1060.19 680.758 1060.8 681.212C1061.22 680.683 1061.34 680.362 1061.03 679.625ZM1074.38 658.539C1073.92 658.085 1073.47 657.633 1073.02 657.179C1072.57 657.103 1072.11 657.027 1071.66 656.951C1069.22 658.192 1064.68 657.135 1061.7 657.858C1060.58 658.399 1060.33 659.161 1059.89 660.352V661.032C1063.33 660.777 1073.41 661.428 1074.38 658.539Z" fill="#14151C"/>
</svg>
